<svg height='100px' width='100px'  fill="#000000" xmlns="http://www.w3.org/2000/svg" xmlns:xlink="http://www.w3.org/1999/xlink" version="1.0" x="0px" y="0px" viewBox="0 0 100 100" enable-background="new 0 0 100 100" xml:space="preserve"><path d="M95.144165,49.8697472L59.0905418,49.326046l31.0077629-3.8885498l-0.1933212-1.5407372l-21.0624542,2.6413383  l25.1348572-6.4704208l-0.3867416-1.5041389l-36.8942795,9.497757l-2.0306015,0.2546387l0.5536728-0.6747131l32.1642838-13.2889023  l-0.5930481-1.435173L57.3054276,45.0990524l4.2224503-5.1457367L81.6636429,24.141428l-0.9589157-1.2212353L66.0829086,34.4021683  l13.9834061-17.0412197l-1.20047-0.9848919l-18.4309425,22.461235l-3.5711327,2.8043137l3.3668976-7.5371246l13.3976288-18.0673962  l-1.2470398-0.9249563l-9.2218285,12.4360189l7.3092842-16.36269l-1.4178772-0.633255l-10.16922,22.7646675l-4.1931534,5.6546593  l4.6034966-31.2590027l-1.536129-0.2263131l-5.0257492,34.1263046l-0.5900307,0.7956429L47.884758,7.3612418l-0.0949745,0.0115533  l-0.0025826-0.2364588l-1.5529022,0.0168896l0.3906364,35.8969269l-0.458313-0.4727974L36.465332,8.5736208l-1.4929123,0.4260015  L43.7835884,39.88517L30.6227989,10.5872736l-1.4154682,0.6361866l11.5999393,25.8242035L23.0097008,18.6845207  l-0.1844692,0.1788101l-2.0041809-2.432148l-1.1978054,0.9873562l18.087513,21.95014L17.370348,19.4880219l-1.0856476,1.1102772  l18.6893635,18.2670269l-19.1905174-11.347147l-0.7901011,1.3363552l24.6530819,14.5776367l0.9538422,0.9323463l-6.421772-2.6375847  L10.3858995,28.5140381l-0.7539177,1.3575268l12.2638655,6.810564l-8.9660225-3.6825294l-0.5892992,1.4356422l21.1587181,8.6906815  l8.7403259,4.8538551L9.8389416,43.9847298l-0.1896887,1.5406151l28.2285538,3.480732L9.4385691,48.5772591l-0.0237226,1.552639  l27.480444,0.4144516L4.8558316,54.5622711l0.193325,1.5407333l36.7886047-4.6134071l-2.5477676,1.0526276l-28.7083931,7.3903923  l0.3870897,1.5038452l18.0240574-4.6399155L7.5704155,65.6472168l0.5930529,1.4354019l31.6195297-13.0637589l1.962162-0.5051727  L13.2904949,75.8581009l0.9585028,1.2214737l29.1617241-22.8995552L21.3254013,83.9629135l1.2475071,0.9249573l24.1528683-32.571373  l0.0346603,3.1855087L24.4931698,82.6385803l1.2004738,0.9848938l21.0930958-25.7055054l0.0262718,2.4156647L34.0905991,88.8138351  l1.4180489,0.6334915L46.8534775,64.050766l0.1769638,16.2641068l-1.763092,11.9719543l1.5360146,0.2267227l0.3350716-2.2751541  l0.0285606,2.625267l1.5519371-0.0168915l-0.1350632-12.4233475l2.3031273-15.6387711l4.1880836,14.6803818l1.5994682,13.1737213  l1.5416756-0.1872559l-0.417675-3.4399109l0.6888504,2.4145584l1.4943161-0.4260025l-3.3802681-11.8481598l-1.1552582-9.514534  l8.8828049,19.7752762l1.4168472-0.6361847L54.8156624,64.4442749l-0.6148682-5.0640984l19.9318581,24.1884041l1.1982422-0.9873581  l-18.086956-21.9492569l20.3394127,19.879776l1.0856781-1.1105118L53.6643028,54.961647l-0.0829811-0.6833954l3.8200531,2.1213837  l24.148613,24.9154892l1.1144714-1.0801849l-20.581295-21.2353134l22.4841652,12.4863358l0.6239319-1.1227112l3.5836487,2.1190948  l0.7911301-1.3373489L61.9271088,54.8023643l29.7009964,12.1993294l0.5902939-1.4365845l-34.3005333-14.087944l36.8023262,4.5379906  l0.1900406-1.5409698l-28.2275314-3.4804955l28.4378662,0.4289322L95.144165,49.8697472z M55.8798752,44.388443  l-0.5336151,0.6502609l0.1591339-0.3562126L55.8798752,44.388443z M55.9527397,39.8734436l-1.7088699,3.8254471  l-0.2845192,0.2234383l0.2500648-1.6979065L55.9527397,39.8734436z M47.9341087,20.6494389l2.8618431,23.5712795  l-1.3162117,1.7749634l-1.2845116-1.3252716L47.9341087,20.6494389z M33.069519,31.2952442l9.6054916,9.9105053l1.3536301,3.013443  l-0.6032295-0.3566818L33.069519,31.2952442z M48.3189392,56.0506935l0.0567131-0.0690842l0.1486664,0.5211258l-0.1957016,0.4380798  L48.3189392,56.0506935z M48.4759941,70.4990768l-0.1069717-9.8410721l0.8181953-1.8316193l0.6646881,2.3298721  L48.4759941,70.4990768z M53.8781853,69.606781l-2.4412079-8.5565567l0.0375023-0.2547569l1.82798,4.0695305L53.8781853,69.606781z   M52.6719627,59.6720543l-0.7772293-1.7301598l0.1699562-1.154026l0.3015251,0.3659477L52.6719627,59.6720543z   M53.3500519,52.3735008l-0.021347-0.1758194l0.3441315,0.3550415L53.3500519,52.3735008z M76.6497116,65.3125839  L58.3547745,55.152771l-1.4943199-1.54179L76.6497116,65.3125839z"></path></svg>